<svg width="24" height="4" viewBox="0 0 24 4" fill="none" xmlns="http://www.w3.org/2000/svg">
<path d="M3.18588 2.83333C3.89162 2.83333 4.46373 2.46023 4.46373 2C4.46373 1.53976 3.89162 1.16666 3.18588 1.16666C2.48014 1.16666 1.90802 1.53976 1.90802 2C1.90802 2.46023 2.48014 2.83333 3.18588 2.83333Z" stroke="#64748B" stroke-width="2" stroke-linecap="round" stroke-linejoin="round"/>
<path d="M12.1309 2.83333C12.8366 2.83333 13.4087 2.46023 13.4087 2C13.4087 1.53976 12.8366 1.16666 12.1309 1.16666C11.4251 1.16666 10.853 1.53976 10.853 2C10.853 2.46023 11.4251 2.83333 12.1309 2.83333Z" stroke="#64748B" stroke-width="2" stroke-linecap="round" stroke-linejoin="round"/>
<path d="M21.0759 2.83333C21.7816 2.83333 22.3537 2.46023 22.3537 2C22.3537 1.53976 21.7816 1.16666 21.0759 1.16666C20.3702 1.16666 19.798 1.53976 19.798 2C19.798 2.46023 20.3702 2.83333 21.0759 2.83333Z" stroke="#64748B" stroke-width="2" stroke-linecap="round" stroke-linejoin="round"/>
</svg>
