<svg width="18" height="19" viewBox="0 0 18 19" fill="none" xmlns="http://www.w3.org/2000/svg">
<path d="M9 6.33334V10L10.8333 11.8333" stroke="#64748B" stroke-width="1.5" stroke-linecap="round" stroke-linejoin="round"/>
<path d="M0.795837 9.08333C1.00125 7.06672 1.94191 5.19631 3.43834 3.82897C4.93477 2.46163 6.88222 1.69306 8.90914 1.66991C10.9361 1.64676 12.9006 2.37064 14.4278 3.70345C15.9551 5.03626 16.9382 6.88469 17.1897 8.89609C17.4411 10.9075 16.9432 12.941 15.791 14.6088C14.6388 16.2765 12.9129 17.4617 10.9427 17.9382C8.97243 18.4147 6.89571 18.1491 5.10875 17.1922C3.32179 16.2353 0.795837 12.75 0.795837 12.75M0.795837 17.3333V12.75M0.795837 12.75H5.37917" stroke="#64748B" stroke-width="1.5" stroke-linecap="round" stroke-linejoin="round"/>
</svg>
