<svg width="145" height="29" viewBox="0 0 145 29" fill="none" xmlns="http://www.w3.org/2000/svg">
<path fill-rule="evenodd" clip-rule="evenodd" d="M0.529798 4.87654C0 6.15559 0 7.77706 0 11.02V17.98C0 21.223 0 22.8444 0.529798 24.1235C1.2362 25.8289 2.59113 27.1838 4.29652 27.8902C5.57557 28.42 7.19704 28.42 10.44 28.42H17.4C20.643 28.42 22.2644 28.42 23.5435 27.8902C25.2489 27.1838 26.6038 25.8289 27.3102 24.1235C27.84 22.8444 27.84 21.223 27.84 17.98V11.02C27.84 7.77706 27.84 6.15559 27.3102 4.87654C26.6038 3.17114 25.2489 1.81621 23.5435 1.10982C22.2644 0.580017 20.643 0.580017 17.4 0.580017H10.44C7.19705 0.580017 5.57557 0.580017 4.29652 1.10982C2.59113 1.81621 1.2362 3.17114 0.529798 4.87654ZM16.0554 8.2023C16.0852 8.094 15.9591 8.01071 15.8713 8.08072L8.10189 14.2711C8.02774 14.3301 8.05193 14.4484 8.14332 14.4736L12.2847 15.6164C12.3465 15.6334 12.3828 15.6973 12.3657 15.759L11.0515 20.5217C11.0217 20.63 11.1478 20.7133 11.2356 20.6432L19.005 14.4529C19.0792 14.3938 19.055 14.2756 18.9636 14.2504L14.8221 13.1076C14.7604 13.0906 14.7241 13.0267 14.7412 12.9649L16.0554 8.2023Z" fill="#2563EB"/>
<path d="M41.9314 6.12727L45.3339 11.8778H45.4657L48.8848 6.12727H52.9135L47.7643 14.5636L53.0288 23H48.926L45.4657 17.2412H45.3339L41.8737 23H37.7873L43.0683 14.5636L37.8862 6.12727H41.9314ZM53.8922 6.12727H57.8879L61.7354 13.3938H61.9002L65.7476 6.12727H69.7433L63.5891 17.0352V23H60.0465V17.0352L53.8922 6.12727ZM71.2205 23V20.8827L79.6404 9.06847H71.2041V6.12727H84.1222V8.2446L75.6941 20.0588H84.1387V23H71.2205ZM102.129 13.954L98.9155 14.1517C98.8606 13.8771 98.7425 13.6299 98.5613 13.4102C98.38 13.185 98.1411 13.0065 97.8445 12.8747C97.5534 12.7374 97.2046 12.6688 96.7982 12.6688C96.2545 12.6688 95.7958 12.7841 95.4223 13.0148C95.0489 13.24 94.8621 13.542 94.8621 13.921C94.8621 14.2231 94.983 14.4785 95.2246 14.6872C95.4663 14.8959 95.881 15.0634 96.4687 15.1898L98.759 15.6511C99.9893 15.9038 100.907 16.3102 101.511 16.8705C102.115 17.4307 102.417 18.1667 102.417 19.0784C102.417 19.9078 102.173 20.6355 101.684 21.2616C101.2 21.8878 100.536 22.3766 99.69 22.7281C98.8496 23.0741 97.8802 23.2472 96.7817 23.2472C95.1065 23.2472 93.7719 22.8984 92.7777 22.2009C91.7891 21.4978 91.2097 20.5421 91.0394 19.3338L94.4914 19.1526C94.5957 19.6634 94.8484 20.0533 95.2493 20.3224C95.6503 20.5861 96.1638 20.7179 96.79 20.7179C97.4051 20.7179 97.8994 20.5998 98.2729 20.3636C98.6519 20.122 98.8441 19.8116 98.8496 19.4327C98.8441 19.1141 98.7096 18.8532 98.4459 18.65C98.1823 18.4413 97.7759 18.282 97.2266 18.1722L95.0351 17.7355C93.7993 17.4884 92.8794 17.0599 92.2752 16.4503C91.6765 15.8406 91.3772 15.0634 91.3772 14.1188C91.3772 13.3059 91.5969 12.6056 92.0363 12.0179C92.4812 11.4302 93.1045 10.9771 93.9064 10.6585C94.7138 10.34 95.6585 10.1807 96.7405 10.1807C98.3388 10.1807 99.5966 10.5185 100.514 11.194C101.437 11.8696 101.975 12.7896 102.129 13.954ZM107.847 15.6841V23H104.337V6.12727H107.748V12.5781H107.896C108.182 11.8312 108.643 11.2462 109.28 10.8233C109.917 10.3949 110.716 10.1807 111.678 10.1807C112.556 10.1807 113.323 10.3729 113.976 10.7574C114.635 11.1364 115.146 11.6829 115.509 12.3969C115.877 13.1054 116.058 13.954 116.052 14.9426V23H112.543V15.5688C112.548 14.7888 112.35 14.1819 111.949 13.748C111.554 13.3141 110.999 13.0972 110.285 13.0972C109.807 13.0972 109.384 13.1988 109.017 13.402C108.654 13.6052 108.368 13.9018 108.16 14.2918C107.956 14.6762 107.852 15.1403 107.847 15.6841ZM124.242 23.2472C122.962 23.2472 121.855 22.9753 120.922 22.4315C119.994 21.8823 119.277 21.1188 118.771 20.1412C118.266 19.158 118.014 18.0184 118.014 16.7222C118.014 15.415 118.266 14.2725 118.771 13.2949C119.277 12.3117 119.994 11.5483 120.922 11.0045C121.855 10.4553 122.962 10.1807 124.242 10.1807C125.522 10.1807 126.626 10.4553 127.554 11.0045C128.488 11.5483 129.207 12.3117 129.712 13.2949C130.218 14.2725 130.47 15.415 130.47 16.7222C130.47 18.0184 130.218 19.158 129.712 20.1412C129.207 21.1188 128.488 21.8823 127.554 22.4315C126.626 22.9753 125.522 23.2472 124.242 23.2472ZM124.258 20.5284C124.841 20.5284 125.327 20.3636 125.717 20.0341C126.107 19.6991 126.4 19.2432 126.598 18.6665C126.801 18.0898 126.903 17.4334 126.903 16.6974C126.903 15.9615 126.801 15.3051 126.598 14.7284C126.4 14.1517 126.107 13.6958 125.717 13.3608C125.327 13.0258 124.841 12.8582 124.258 12.8582C123.671 12.8582 123.176 13.0258 122.775 13.3608C122.38 13.6958 122.081 14.1517 121.877 14.7284C121.68 15.3051 121.581 15.9615 121.581 16.6974C121.581 17.4334 121.68 18.0898 121.877 18.6665C122.081 19.2432 122.38 19.6991 122.775 20.0341C123.176 20.3636 123.671 20.5284 124.258 20.5284ZM132.462 27.7455V10.3455H135.923V12.471H136.079C136.233 12.1305 136.455 11.7845 136.747 11.433C137.043 11.0759 137.428 10.7794 137.9 10.5432C138.378 10.3015 138.971 10.1807 139.679 10.1807C140.602 10.1807 141.454 10.4223 142.233 10.9057C143.013 11.3835 143.637 12.1058 144.104 13.0724C144.57 14.0336 144.804 15.2392 144.804 16.6892C144.804 18.1008 144.576 19.2926 144.12 20.2648C143.67 21.2314 143.055 21.9647 142.275 22.4645C141.5 22.9588 140.632 23.206 139.671 23.206C138.99 23.206 138.411 23.0934 137.933 22.8682C137.461 22.643 137.073 22.3601 136.771 22.0196C136.469 21.6736 136.238 21.3248 136.079 20.9733H135.972V27.7455H132.462ZM135.898 16.6727C135.898 17.4252 136.002 18.0815 136.211 18.6418C136.42 19.202 136.722 19.6386 137.117 19.9517C137.513 20.2593 137.993 20.4131 138.559 20.4131C139.13 20.4131 139.614 20.2565 140.009 19.9435C140.404 19.6249 140.704 19.1855 140.907 18.6253C141.116 18.0596 141.22 17.4087 141.22 16.6727C141.22 15.9422 141.118 15.2996 140.915 14.7449C140.712 14.1902 140.413 13.7563 140.017 13.4432C139.622 13.1301 139.136 12.9736 138.559 12.9736C137.988 12.9736 137.504 13.1246 137.109 13.4267C136.719 13.7288 136.42 14.1572 136.211 14.7119C136.002 15.2667 135.898 15.9203 135.898 16.6727Z" fill="#0F172A"/>
</svg>
